<?xml version="1.0" standalone="no"?>
<!DOCTYPE svg PUBLIC "-//W3C//DTD SVG 20010904//EN"
 "http://www.w3.org/TR/2001/REC-SVG-20010904/DTD/svg10.dtd">
<svg version="1.0" xmlns="http://www.w3.org/2000/svg"
 width="1365.000000pt" height="936.000000pt" viewBox="0 0 1365.000000 936.000000"
 preserveAspectRatio="xMidYMid meet">

<g transform="translate(0.000000,936.000000) scale(0.100000,-0.100000)"
fill="#000000" stroke="none">
<path d="M8646 6679 c-27 -3 -54 -12 -60 -21 -6 -8 -144 -95 -306 -193 -162
-98 -308 -186 -325 -196 -16 -10 -37 -22 -45 -26 -8 -3 -37 -21 -65 -38 -108
-70 -557 -335 -567 -335 -10 0 -98 65 -297 218 -46 36 -123 87 -172 113 -74
41 -96 49 -141 49 -47 0 -69 9 -193 76 -245 133 -291 154 -322 148 -15 -3
-224 -33 -463 -67 l-435 -63 -205 8 c-378 13 -874 63 -1479 149 l-354 51 -856
-36 c-471 -20 -872 -36 -891 -36 -32 0 -109 -58 -730 -546 -382 -300 -705
-555 -718 -567 l-22 -20 0 -2674 0 -2673 6825 0 6825 0 -2 2769 c-2 1523 -7
2773 -11 2777 -5 5 -38 -2 -75 -15 -102 -34 -590 -210 -647 -231 -50 -19 -413
-150 -598 -216 l-98 -35 -357 -1 c-294 -1 -362 -4 -387 -16 -16 -8 -158 -90
-315 -182 -157 -92 -302 -177 -322 -188 -20 -12 -55 -33 -78 -47 -23 -15 -47
-24 -54 -22 -9 4 -1079 1369 -1216 1552 -90 120 -400 513 -414 524 -14 12 -57
15 -199 15 -100 1 -204 -2 -231 -5z"/>
</g>
</svg>
